<svg xmlns="http://www.w3.org/2000/svg" viewBox="0 0 680 360" width="680" height="360">
  <defs>
    <radialGradient id="bgGlow" cx="50%" cy="50%" r="50%">
      <stop offset="0%" stop-color="#2a0e3a" stop-opacity="0.35"/>
      <stop offset="100%" stop-color="#0a0118" stop-opacity="0"/>
    </radialGradient>
  </defs>
  <g transform="translate(160, 180)">
    <circle cx="0" cy="0" r="120" fill="url(#bgGlow)"/>
    <circle cx="0" cy="0" r="105" fill="none" stroke="#3b0f6f" stroke-width="2" stroke-dasharray="2 4" opacity="0.55"/>
    <circle cx="0" cy="0" r="85" fill="none" stroke="#7a1f8c" stroke-width="2" stroke-dasharray="3 5" opacity="0.7"/>
    <circle cx="0" cy="0" r="65" fill="none" stroke="#c2306f" stroke-width="2" stroke-dasharray="4 4" opacity="0.85"/>
    <circle cx="0" cy="0" r="44" fill="none" stroke="#f06a3a" stroke-width="2" stroke-dasharray="5 3"/>
    <g fill="#fcb249">
      <circle cx="0" cy="-105" r="5"/>
      <circle cx="91" cy="-52" r="5"/>
      <circle cx="91" cy="52" r="5"/>
      <circle cx="0" cy="105" r="5"/>
      <circle cx="-91" cy="52" r="5"/>
      <circle cx="-91" cy="-52" r="5"/>
    </g>
    <g fill="#f06a3a">
      <circle cx="60" cy="-60" r="4"/>
      <circle cx="60" cy="60" r="4"/>
      <circle cx="-60" cy="60" r="4"/>
      <circle cx="-60" cy="-60" r="4"/>
    </g>
    <g fill="#c2306f">
      <circle cx="44" cy="0" r="3"/>
      <circle cx="-44" cy="0" r="3"/>
      <circle cx="0" cy="44" r="3"/>
      <circle cx="0" cy="-44" r="3"/>
    </g>
    <circle cx="0" cy="0" r="9" fill="#fde08e"/>
    <circle cx="0" cy="0" r="4" fill="#fff5d0"/>
    <line x1="-118" y1="0" x2="118" y2="0" stroke="#fcb249" stroke-width="0.8" opacity="0.35"/>
  </g>
  <g transform="translate(310, 180)">
    <text x="0" y="-8" font-family="ui-sans-serif, system-ui, sans-serif" font-size="56" font-weight="500" fill="#fcb249" letter-spacing="4">GIDEON</text>
    <text x="2" y="22" font-family="ui-sans-serif, system-ui, sans-serif" font-size="11" font-weight="400" fill="#c2306f" letter-spacing="2.6">GRAZING INCIDENCE DIFFRACTION</text>
    <text x="2" y="40" font-family="ui-sans-serif, system-ui, sans-serif" font-size="11" font-weight="400" fill="#c2306f" letter-spacing="2.6">ENVIRONMENT FOR OPTIMIZED ANALYSIS</text>
  </g>
</svg>
